<svg xmlns="http://www.w3.org/2000/svg" width="900" height="290" style="font-family: -apple-system, BlinkMacSystemFont, 'Segoe UI', Helvetica, Arial, sans-serif;">
  <rect width="100%" height="100%" fill="white"/>
  <g>
    <line x1="40" y1="220.00" x2="860" y2="220.00" stroke="#e5e7eb"/><text x="32" y="224.00" font-size="10" fill="#111827" text-anchor="end">0</text><line x1="40" y1="175.00" x2="860" y2="175.00" stroke="#e5e7eb"/><text x="32" y="179.00" font-size="10" fill="#111827" text-anchor="end">500</text><line x1="40" y1="130.00" x2="860" y2="130.00" stroke="#e5e7eb"/><text x="32" y="134.00" font-size="10" fill="#111827" text-anchor="end">1k</text><line x1="40" y1="85.00" x2="860" y2="85.00" stroke="#e5e7eb"/><text x="32" y="89.00" font-size="10" fill="#111827" text-anchor="end">1.5k</text><line x1="40" y1="40.00" x2="860" y2="40.00" stroke="#e5e7eb"/><text x="32" y="44.00" font-size="10" fill="#111827" text-anchor="end">2k</text>
    <line x1="40.00" y1="40" x2="40.00" y2="220" stroke="#e5e7eb" opacity="0.5"/><line x1="116.88" y1="40" x2="116.88" y2="220" stroke="#e5e7eb" opacity="0.5"/><line x1="193.75" y1="40" x2="193.75" y2="220" stroke="#e5e7eb" opacity="0.5"/><line x1="270.62" y1="40" x2="270.62" y2="220" stroke="#e5e7eb" opacity="0.5"/><line x1="347.50" y1="40" x2="347.50" y2="220" stroke="#e5e7eb" opacity="0.5"/><line x1="424.38" y1="40" x2="424.38" y2="220" stroke="#e5e7eb" opacity="0.5"/><line x1="501.25" y1="40" x2="501.25" y2="220" stroke="#e5e7eb" opacity="0.5"/><line x1="578.12" y1="40" x2="578.12" y2="220" stroke="#e5e7eb" opacity="0.5"/><line x1="655.00" y1="40" x2="655.00" y2="220" stroke="#e5e7eb" opacity="0.5"/><line x1="731.88" y1="40" x2="731.88" y2="220" stroke="#e5e7eb" opacity="0.5"/><line x1="808.75" y1="40" x2="808.75" y2="220" stroke="#e5e7eb" opacity="0.5"/>
    <line x1="40" y1="220" x2="860" y2="220" stroke="#9ca3af"/>
    <line x1="40" y1="40"   x2="40"   y2="220" stroke="#9ca3af"/>
    <path d="M 40.00 169.69 L 65.62 168.16 L 91.25 168.16 L 116.88 168.16 L 142.50 135.04 L 168.12 135.04 L 193.75 135.04 L 219.38 134.95 L 245.00 135.13 L 270.62 135.13 L 296.25 134.50 L 321.88 129.82 L 347.50 129.82 L 373.12 129.82 L 398.75 129.82 L 424.38 129.82 L 450.00 129.82 L 475.62 129.28 L 501.25 126.85 L 526.88 126.58 L 552.50 126.31 L 578.12 126.67 L 603.75 126.67 L 629.38 126.67 L 655.00 123.25 L 680.62 123.25 L 706.25 123.25 L 731.88 123.25 L 757.50 123.25 L 783.12 123.25 L 808.75 123.25 L 834.38 123.25 L 860.00 123.25" fill="none" stroke="#111827" stroke-width="2"/>
    <circle cx="860.00" cy="123.25" r="3" fill="#111827"/>
    <text x="40.00" y="235.00" font-size="9" fill="#111827" text-anchor="middle" transform="rotate(-45 40.00 235.00)">31.08.25</text><text x="116.88" y="235.00" font-size="9" fill="#111827" text-anchor="middle" transform="rotate(-45 116.88 235.00)">01.09.25</text><text x="193.75" y="235.00" font-size="9" fill="#111827" text-anchor="middle" transform="rotate(-45 193.75 235.00)">01.09.25</text><text x="270.62" y="235.00" font-size="9" fill="#111827" text-anchor="middle" transform="rotate(-45 270.62 235.00)">02.09.25</text><text x="347.50" y="235.00" font-size="9" fill="#111827" text-anchor="middle" transform="rotate(-45 347.50 235.00)">02.09.25</text><text x="424.38" y="235.00" font-size="9" fill="#111827" text-anchor="middle" transform="rotate(-45 424.38 235.00)">05.09.25</text><text x="501.25" y="235.00" font-size="9" fill="#111827" text-anchor="middle" transform="rotate(-45 501.25 235.00)">06.09.25</text><text x="578.12" y="235.00" font-size="9" fill="#111827" text-anchor="middle" transform="rotate(-45 578.12 235.00)">06.09.25</text><text x="655.00" y="235.00" font-size="9" fill="#111827" text-anchor="middle" transform="rotate(-45 655.00 235.00)">06.09.25</text><text x="731.88" y="235.00" font-size="9" fill="#111827" text-anchor="middle" transform="rotate(-45 731.88 235.00)">14.09.25</text><text x="808.75" y="235.00" font-size="9" fill="#111827" text-anchor="middle" transform="rotate(-45 808.75 235.00)">14.09.25</text>
  </g>
</svg>