<svg xmlns="http://www.w3.org/2000/svg" width="900" height="290" style="font-family: -apple-system, BlinkMacSystemFont, 'Segoe UI', Helvetica, Arial, sans-serif;">
  <rect width="100%" height="100%" fill="#0d1117"/>
  <g>
    <line x1="40" y1="220.00" x2="860" y2="220.00" stroke="#30363d"/><text x="32" y="224.00" font-size="10" fill="#c9d1d9" text-anchor="end">0</text><line x1="40" y1="175.00" x2="860" y2="175.00" stroke="#30363d"/><text x="32" y="179.00" font-size="10" fill="#c9d1d9" text-anchor="end">500</text><line x1="40" y1="130.00" x2="860" y2="130.00" stroke="#30363d"/><text x="32" y="134.00" font-size="10" fill="#c9d1d9" text-anchor="end">1k</text><line x1="40" y1="85.00" x2="860" y2="85.00" stroke="#30363d"/><text x="32" y="89.00" font-size="10" fill="#c9d1d9" text-anchor="end">1.5k</text><line x1="40" y1="40.00" x2="860" y2="40.00" stroke="#30363d"/><text x="32" y="44.00" font-size="10" fill="#c9d1d9" text-anchor="end">2k</text>
    <line x1="40.00" y1="40" x2="40.00" y2="220" stroke="#30363d" opacity="0.5"/><line x1="123.67" y1="40" x2="123.67" y2="220" stroke="#30363d" opacity="0.5"/><line x1="207.35" y1="40" x2="207.35" y2="220" stroke="#30363d" opacity="0.5"/><line x1="291.02" y1="40" x2="291.02" y2="220" stroke="#30363d" opacity="0.5"/><line x1="374.69" y1="40" x2="374.69" y2="220" stroke="#30363d" opacity="0.5"/><line x1="458.37" y1="40" x2="458.37" y2="220" stroke="#30363d" opacity="0.5"/><line x1="542.04" y1="40" x2="542.04" y2="220" stroke="#30363d" opacity="0.5"/><line x1="625.71" y1="40" x2="625.71" y2="220" stroke="#30363d" opacity="0.5"/><line x1="709.39" y1="40" x2="709.39" y2="220" stroke="#30363d" opacity="0.5"/><line x1="793.06" y1="40" x2="793.06" y2="220" stroke="#30363d" opacity="0.5"/>
    <line x1="40" y1="220" x2="860" y2="220" stroke="#30363d"/>
    <line x1="40" y1="40"   x2="40"   y2="220" stroke="#30363d"/>
    <path d="M 40.00 169.69 L 56.73 168.16 L 73.47 168.16 L 90.20 168.16 L 106.94 135.04 L 123.67 135.04 L 140.41 135.04 L 157.14 134.95 L 173.88 135.13 L 190.61 135.13 L 207.35 134.50 L 224.08 129.82 L 240.82 129.82 L 257.55 129.82 L 274.29 129.82 L 291.02 129.82 L 307.76 129.82 L 324.49 129.28 L 341.22 126.85 L 357.96 126.58 L 374.69 126.31 L 391.43 126.67 L 408.16 126.67 L 424.90 126.67 L 441.63 123.25 L 458.37 123.25 L 475.10 123.25 L 491.84 123.25 L 508.57 123.25 L 525.31 123.25 L 542.04 123.25 L 558.78 123.25 L 575.51 123.25 L 592.24 123.25 L 608.98 123.25 L 625.71 123.25 L 642.45 123.25 L 659.18 123.25 L 675.92 123.25 L 692.65 123.25 L 709.39 123.25 L 726.12 123.25 L 742.86 123.25 L 759.59 123.25 L 776.33 123.25 L 793.06 123.25 L 809.80 123.25 L 826.53 123.25 L 843.27 123.25 L 860.00 123.25" fill="none" stroke="#3fb950" stroke-width="2"/>
    <circle cx="860.00" cy="123.25" r="3" fill="#3fb950"/>
    <text x="40.00" y="235.00" font-size="9" fill="#c9d1d9" text-anchor="middle" transform="rotate(-45 40.00 235.00)">31.08.25</text><text x="123.67" y="235.00" font-size="9" fill="#c9d1d9" text-anchor="middle" transform="rotate(-45 123.67 235.00)">01.09.25</text><text x="207.35" y="235.00" font-size="9" fill="#c9d1d9" text-anchor="middle" transform="rotate(-45 207.35 235.00)">02.09.25</text><text x="291.02" y="235.00" font-size="9" fill="#c9d1d9" text-anchor="middle" transform="rotate(-45 291.02 235.00)">05.09.25</text><text x="374.69" y="235.00" font-size="9" fill="#c9d1d9" text-anchor="middle" transform="rotate(-45 374.69 235.00)">06.09.25</text><text x="458.37" y="235.00" font-size="9" fill="#c9d1d9" text-anchor="middle" transform="rotate(-45 458.37 235.00)">08.09.25</text><text x="542.04" y="235.00" font-size="9" fill="#c9d1d9" text-anchor="middle" transform="rotate(-45 542.04 235.00)">14.09.25</text><text x="625.71" y="235.00" font-size="9" fill="#c9d1d9" text-anchor="middle" transform="rotate(-45 625.71 235.00)">13.10.25</text><text x="709.39" y="235.00" font-size="9" fill="#c9d1d9" text-anchor="middle" transform="rotate(-45 709.39 235.00)">27.10.25</text><text x="793.06" y="235.00" font-size="9" fill="#c9d1d9" text-anchor="middle" transform="rotate(-45 793.06 235.00)">01.12.25</text>
  </g>
</svg>