<svg xmlns="http://www.w3.org/2000/svg" width="900" height="290" style="font-family: -apple-system, BlinkMacSystemFont, 'Segoe UI', Helvetica, Arial, sans-serif;">
  <rect width="100%" height="100%" fill="white"/>
  <g>
    <line x1="40" y1="220.00" x2="860" y2="220.00" stroke="#e5e7eb"/><text x="32" y="224.00" font-size="10" fill="#111827" text-anchor="end">0</text><line x1="40" y1="175.00" x2="860" y2="175.00" stroke="#e5e7eb"/><text x="32" y="179.00" font-size="10" fill="#111827" text-anchor="end">500</text><line x1="40" y1="130.00" x2="860" y2="130.00" stroke="#e5e7eb"/><text x="32" y="134.00" font-size="10" fill="#111827" text-anchor="end">1k</text><line x1="40" y1="85.00" x2="860" y2="85.00" stroke="#e5e7eb"/><text x="32" y="89.00" font-size="10" fill="#111827" text-anchor="end">1.5k</text><line x1="40" y1="40.00" x2="860" y2="40.00" stroke="#e5e7eb"/><text x="32" y="44.00" font-size="10" fill="#111827" text-anchor="end">2k</text>
    <line x1="40.00" y1="40" x2="40.00" y2="220" stroke="#e5e7eb" opacity="0.5"/><line x1="108.33" y1="40" x2="108.33" y2="220" stroke="#e5e7eb" opacity="0.5"/><line x1="176.67" y1="40" x2="176.67" y2="220" stroke="#e5e7eb" opacity="0.5"/><line x1="245.00" y1="40" x2="245.00" y2="220" stroke="#e5e7eb" opacity="0.5"/><line x1="313.33" y1="40" x2="313.33" y2="220" stroke="#e5e7eb" opacity="0.5"/><line x1="381.67" y1="40" x2="381.67" y2="220" stroke="#e5e7eb" opacity="0.5"/><line x1="450.00" y1="40" x2="450.00" y2="220" stroke="#e5e7eb" opacity="0.5"/><line x1="518.33" y1="40" x2="518.33" y2="220" stroke="#e5e7eb" opacity="0.5"/><line x1="586.67" y1="40" x2="586.67" y2="220" stroke="#e5e7eb" opacity="0.5"/><line x1="655.00" y1="40" x2="655.00" y2="220" stroke="#e5e7eb" opacity="0.5"/><line x1="723.33" y1="40" x2="723.33" y2="220" stroke="#e5e7eb" opacity="0.5"/><line x1="791.67" y1="40" x2="791.67" y2="220" stroke="#e5e7eb" opacity="0.5"/><line x1="860.00" y1="40" x2="860.00" y2="220" stroke="#e5e7eb" opacity="0.5"/>
    <line x1="40" y1="220" x2="860" y2="220" stroke="#9ca3af"/>
    <line x1="40" y1="40"   x2="40"   y2="220" stroke="#9ca3af"/>
    <path d="M 40.00 169.69 L 57.08 168.16 L 74.17 168.16 L 91.25 168.16 L 108.33 135.04 L 125.42 135.04 L 142.50 135.04 L 159.58 134.95 L 176.67 135.13 L 193.75 135.13 L 210.83 134.50 L 227.92 129.82 L 245.00 129.82 L 262.08 129.82 L 279.17 129.82 L 296.25 129.82 L 313.33 129.82 L 330.42 129.28 L 347.50 126.85 L 364.58 126.58 L 381.67 126.31 L 398.75 126.67 L 415.83 126.67 L 432.92 126.67 L 450.00 123.25 L 467.08 123.25 L 484.17 123.25 L 501.25 123.25 L 518.33 123.25 L 535.42 123.25 L 552.50 123.25 L 569.58 123.25 L 586.67 123.25 L 603.75 123.25 L 620.83 123.25 L 637.92 123.25 L 655.00 123.25 L 672.08 123.25 L 689.17 123.25 L 706.25 123.25 L 723.33 123.25 L 740.42 123.25 L 757.50 123.25 L 774.58 123.25 L 791.67 123.25 L 808.75 123.25 L 825.83 123.25 L 842.92 123.25 L 860.00 123.25" fill="none" stroke="#111827" stroke-width="2"/>
    <circle cx="860.00" cy="123.25" r="3" fill="#111827"/>
    <text x="40.00" y="235.00" font-size="9" fill="#111827" text-anchor="middle" transform="rotate(-45 40.00 235.00)">31.08.25</text><text x="108.33" y="235.00" font-size="9" fill="#111827" text-anchor="middle" transform="rotate(-45 108.33 235.00)">01.09.25</text><text x="176.67" y="235.00" font-size="9" fill="#111827" text-anchor="middle" transform="rotate(-45 176.67 235.00)">02.09.25</text><text x="245.00" y="235.00" font-size="9" fill="#111827" text-anchor="middle" transform="rotate(-45 245.00 235.00)">02.09.25</text><text x="313.33" y="235.00" font-size="9" fill="#111827" text-anchor="middle" transform="rotate(-45 313.33 235.00)">05.09.25</text><text x="381.67" y="235.00" font-size="9" fill="#111827" text-anchor="middle" transform="rotate(-45 381.67 235.00)">06.09.25</text><text x="450.00" y="235.00" font-size="9" fill="#111827" text-anchor="middle" transform="rotate(-45 450.00 235.00)">06.09.25</text><text x="518.33" y="235.00" font-size="9" fill="#111827" text-anchor="middle" transform="rotate(-45 518.33 235.00)">14.09.25</text><text x="586.67" y="235.00" font-size="9" fill="#111827" text-anchor="middle" transform="rotate(-45 586.67 235.00)">22.09.25</text><text x="655.00" y="235.00" font-size="9" fill="#111827" text-anchor="middle" transform="rotate(-45 655.00 235.00)">20.10.25</text><text x="723.33" y="235.00" font-size="9" fill="#111827" text-anchor="middle" transform="rotate(-45 723.33 235.00)">27.10.25</text><text x="791.67" y="235.00" font-size="9" fill="#111827" text-anchor="middle" transform="rotate(-45 791.67 235.00)">24.11.25</text><text x="860.00" y="235.00" font-size="9" fill="#111827" text-anchor="middle" transform="rotate(-45 860.00 235.00)">22.12.25</text>
  </g>
</svg>