<svg xmlns="http://www.w3.org/2000/svg" width="900" height="290" style="font-family: -apple-system, BlinkMacSystemFont, 'Segoe UI', Helvetica, Arial, sans-serif;">
  <rect width="100%" height="100%" fill="white"/>
  <g>
    <line x1="40" y1="220.00" x2="860" y2="220.00" stroke="#e5e7eb"/><text x="32" y="224.00" font-size="10" fill="#111827" text-anchor="end">0</text><line x1="40" y1="175.00" x2="860" y2="175.00" stroke="#e5e7eb"/><text x="32" y="179.00" font-size="10" fill="#111827" text-anchor="end">500</text><line x1="40" y1="130.00" x2="860" y2="130.00" stroke="#e5e7eb"/><text x="32" y="134.00" font-size="10" fill="#111827" text-anchor="end">1k</text><line x1="40" y1="85.00" x2="860" y2="85.00" stroke="#e5e7eb"/><text x="32" y="89.00" font-size="10" fill="#111827" text-anchor="end">1.5k</text><line x1="40" y1="40.00" x2="860" y2="40.00" stroke="#e5e7eb"/><text x="32" y="44.00" font-size="10" fill="#111827" text-anchor="end">2k</text>
    <line x1="40.00" y1="40" x2="40.00" y2="220" stroke="#e5e7eb" opacity="0.5"/><line x1="109.79" y1="40" x2="109.79" y2="220" stroke="#e5e7eb" opacity="0.5"/><line x1="179.57" y1="40" x2="179.57" y2="220" stroke="#e5e7eb" opacity="0.5"/><line x1="249.36" y1="40" x2="249.36" y2="220" stroke="#e5e7eb" opacity="0.5"/><line x1="319.15" y1="40" x2="319.15" y2="220" stroke="#e5e7eb" opacity="0.5"/><line x1="388.94" y1="40" x2="388.94" y2="220" stroke="#e5e7eb" opacity="0.5"/><line x1="458.72" y1="40" x2="458.72" y2="220" stroke="#e5e7eb" opacity="0.5"/><line x1="528.51" y1="40" x2="528.51" y2="220" stroke="#e5e7eb" opacity="0.5"/><line x1="598.30" y1="40" x2="598.30" y2="220" stroke="#e5e7eb" opacity="0.5"/><line x1="668.09" y1="40" x2="668.09" y2="220" stroke="#e5e7eb" opacity="0.5"/><line x1="737.87" y1="40" x2="737.87" y2="220" stroke="#e5e7eb" opacity="0.5"/><line x1="807.66" y1="40" x2="807.66" y2="220" stroke="#e5e7eb" opacity="0.5"/>
    <line x1="40" y1="220" x2="860" y2="220" stroke="#9ca3af"/>
    <line x1="40" y1="40"   x2="40"   y2="220" stroke="#9ca3af"/>
    <path d="M 40.00 169.69 L 57.45 168.16 L 74.89 168.16 L 92.34 168.16 L 109.79 135.04 L 127.23 135.04 L 144.68 135.04 L 162.13 134.95 L 179.57 135.13 L 197.02 135.13 L 214.47 134.50 L 231.91 129.82 L 249.36 129.82 L 266.81 129.82 L 284.26 129.82 L 301.70 129.82 L 319.15 129.82 L 336.60 129.28 L 354.04 126.85 L 371.49 126.58 L 388.94 126.31 L 406.38 126.67 L 423.83 126.67 L 441.28 126.67 L 458.72 123.25 L 476.17 123.25 L 493.62 123.25 L 511.06 123.25 L 528.51 123.25 L 545.96 123.25 L 563.40 123.25 L 580.85 123.25 L 598.30 123.25 L 615.74 123.25 L 633.19 123.25 L 650.64 123.25 L 668.09 123.25 L 685.53 123.25 L 702.98 123.25 L 720.43 123.25 L 737.87 123.25 L 755.32 123.25 L 772.77 123.25 L 790.21 123.25 L 807.66 123.25 L 825.11 123.25 L 842.55 123.25 L 860.00 123.25" fill="none" stroke="#111827" stroke-width="2"/>
    <circle cx="860.00" cy="123.25" r="3" fill="#111827"/>
    <text x="40.00" y="235.00" font-size="9" fill="#111827" text-anchor="middle" transform="rotate(-45 40.00 235.00)">31.08.25</text><text x="109.79" y="235.00" font-size="9" fill="#111827" text-anchor="middle" transform="rotate(-45 109.79 235.00)">01.09.25</text><text x="179.57" y="235.00" font-size="9" fill="#111827" text-anchor="middle" transform="rotate(-45 179.57 235.00)">02.09.25</text><text x="249.36" y="235.00" font-size="9" fill="#111827" text-anchor="middle" transform="rotate(-45 249.36 235.00)">02.09.25</text><text x="319.15" y="235.00" font-size="9" fill="#111827" text-anchor="middle" transform="rotate(-45 319.15 235.00)">05.09.25</text><text x="388.94" y="235.00" font-size="9" fill="#111827" text-anchor="middle" transform="rotate(-45 388.94 235.00)">06.09.25</text><text x="458.72" y="235.00" font-size="9" fill="#111827" text-anchor="middle" transform="rotate(-45 458.72 235.00)">06.09.25</text><text x="528.51" y="235.00" font-size="9" fill="#111827" text-anchor="middle" transform="rotate(-45 528.51 235.00)">14.09.25</text><text x="598.30" y="235.00" font-size="9" fill="#111827" text-anchor="middle" transform="rotate(-45 598.30 235.00)">22.09.25</text><text x="668.09" y="235.00" font-size="9" fill="#111827" text-anchor="middle" transform="rotate(-45 668.09 235.00)">20.10.25</text><text x="737.87" y="235.00" font-size="9" fill="#111827" text-anchor="middle" transform="rotate(-45 737.87 235.00)">27.10.25</text><text x="807.66" y="235.00" font-size="9" fill="#111827" text-anchor="middle" transform="rotate(-45 807.66 235.00)">24.11.25</text>
  </g>
</svg>