<svg xmlns="http://www.w3.org/2000/svg" width="900" height="290" style="font-family: -apple-system, BlinkMacSystemFont, 'Segoe UI', Helvetica, Arial, sans-serif;">
  <rect width="100%" height="100%" fill="#0d1117"/>
  <g>
    <line x1="40" y1="220.00" x2="860" y2="220.00" stroke="#30363d"/><text x="32" y="224.00" font-size="10" fill="#c9d1d9" text-anchor="end">0</text><line x1="40" y1="175.00" x2="860" y2="175.00" stroke="#30363d"/><text x="32" y="179.00" font-size="10" fill="#c9d1d9" text-anchor="end">500</text><line x1="40" y1="130.00" x2="860" y2="130.00" stroke="#30363d"/><text x="32" y="134.00" font-size="10" fill="#c9d1d9" text-anchor="end">1k</text><line x1="40" y1="85.00" x2="860" y2="85.00" stroke="#30363d"/><text x="32" y="89.00" font-size="10" fill="#c9d1d9" text-anchor="end">1.5k</text><line x1="40" y1="40.00" x2="860" y2="40.00" stroke="#30363d"/><text x="32" y="44.00" font-size="10" fill="#c9d1d9" text-anchor="end">2k</text>
    <line x1="40.00" y1="40" x2="40.00" y2="220" stroke="#30363d" opacity="0.5"/><line x1="116.28" y1="40" x2="116.28" y2="220" stroke="#30363d" opacity="0.5"/><line x1="192.56" y1="40" x2="192.56" y2="220" stroke="#30363d" opacity="0.5"/><line x1="268.84" y1="40" x2="268.84" y2="220" stroke="#30363d" opacity="0.5"/><line x1="345.12" y1="40" x2="345.12" y2="220" stroke="#30363d" opacity="0.5"/><line x1="421.40" y1="40" x2="421.40" y2="220" stroke="#30363d" opacity="0.5"/><line x1="497.67" y1="40" x2="497.67" y2="220" stroke="#30363d" opacity="0.5"/><line x1="573.95" y1="40" x2="573.95" y2="220" stroke="#30363d" opacity="0.5"/><line x1="650.23" y1="40" x2="650.23" y2="220" stroke="#30363d" opacity="0.5"/><line x1="726.51" y1="40" x2="726.51" y2="220" stroke="#30363d" opacity="0.5"/><line x1="802.79" y1="40" x2="802.79" y2="220" stroke="#30363d" opacity="0.5"/>
    <line x1="40" y1="220" x2="860" y2="220" stroke="#30363d"/>
    <line x1="40" y1="40"   x2="40"   y2="220" stroke="#30363d"/>
    <path d="M 40.00 169.69 L 59.07 168.16 L 78.14 168.16 L 97.21 168.16 L 116.28 135.04 L 135.35 135.04 L 154.42 135.04 L 173.49 134.95 L 192.56 135.13 L 211.63 135.13 L 230.70 134.50 L 249.77 129.82 L 268.84 129.82 L 287.91 129.82 L 306.98 129.82 L 326.05 129.82 L 345.12 129.82 L 364.19 129.28 L 383.26 126.85 L 402.33 126.58 L 421.40 126.31 L 440.47 126.67 L 459.53 126.67 L 478.60 126.67 L 497.67 123.25 L 516.74 123.25 L 535.81 123.25 L 554.88 123.25 L 573.95 123.25 L 593.02 123.25 L 612.09 123.25 L 631.16 123.25 L 650.23 123.25 L 669.30 123.25 L 688.37 123.25 L 707.44 123.25 L 726.51 123.25 L 745.58 123.25 L 764.65 123.25 L 783.72 123.25 L 802.79 123.25 L 821.86 123.25 L 840.93 123.25 L 860.00 123.25" fill="none" stroke="#3fb950" stroke-width="2"/>
    <circle cx="860.00" cy="123.25" r="3" fill="#3fb950"/>
    <text x="40.00" y="235.00" font-size="9" fill="#c9d1d9" text-anchor="middle" transform="rotate(-45 40.00 235.00)">31.08.25</text><text x="116.28" y="235.00" font-size="9" fill="#c9d1d9" text-anchor="middle" transform="rotate(-45 116.28 235.00)">01.09.25</text><text x="192.56" y="235.00" font-size="9" fill="#c9d1d9" text-anchor="middle" transform="rotate(-45 192.56 235.00)">02.09.25</text><text x="268.84" y="235.00" font-size="9" fill="#c9d1d9" text-anchor="middle" transform="rotate(-45 268.84 235.00)">02.09.25</text><text x="345.12" y="235.00" font-size="9" fill="#c9d1d9" text-anchor="middle" transform="rotate(-45 345.12 235.00)">05.09.25</text><text x="421.40" y="235.00" font-size="9" fill="#c9d1d9" text-anchor="middle" transform="rotate(-45 421.40 235.00)">06.09.25</text><text x="497.67" y="235.00" font-size="9" fill="#c9d1d9" text-anchor="middle" transform="rotate(-45 497.67 235.00)">06.09.25</text><text x="573.95" y="235.00" font-size="9" fill="#c9d1d9" text-anchor="middle" transform="rotate(-45 573.95 235.00)">14.09.25</text><text x="650.23" y="235.00" font-size="9" fill="#c9d1d9" text-anchor="middle" transform="rotate(-45 650.23 235.00)">22.09.25</text><text x="726.51" y="235.00" font-size="9" fill="#c9d1d9" text-anchor="middle" transform="rotate(-45 726.51 235.00)">20.10.25</text><text x="802.79" y="235.00" font-size="9" fill="#c9d1d9" text-anchor="middle" transform="rotate(-45 802.79 235.00)">27.10.25</text>
  </g>
</svg>